<?xml version="1.0" encoding="UTF-8"?>
<svg version="1.1" xmlns="http://www.w3.org/2000/svg" width="48" height="48">
<path d="M0 0 C5.93997737 3.48462138 10.60385683 8.9345583 12.6875 15.5 C13.5576808 22.83582654 13.30988721 29.51278537 8.6875 35.5 C4.07104101 40.36703923 -0.30334659 44.02443146 -7.14453125 44.8359375 C-15.04160785 44.93943785 -20.45283618 44.16094846 -26.28515625 38.62890625 C-32.17041995 32.23608387 -33.80859036 27.17692982 -33.6171875 18.5 C-32.85193062 10.96516305 -29.0134316 6.73538884 -23.41015625 1.9453125 C-16.68882894 -2.68576963 -7.48610354 -3.30441289 0 0 Z M-13.3125 9.5 C-13.3125 12.47 -13.3125 15.44 -13.3125 18.5 C-16.2825 18.5 -19.2525 18.5 -22.3125 18.5 C-22.3125 20.48 -22.3125 22.46 -22.3125 24.5 C-19.3425 24.5 -16.3725 24.5 -13.3125 24.5 C-13.3125 27.47 -13.3125 30.44 -13.3125 33.5 C-11.3325 33.5 -9.3525 33.5 -7.3125 33.5 C-7.3125 30.53 -7.3125 27.56 -7.3125 24.5 C-4.3425 24.5 -1.3725 24.5 1.6875 24.5 C1.6875 22.52 1.6875 20.54 1.6875 18.5 C-1.2825 18.5 -4.2525 18.5 -7.3125 18.5 C-7.3125 15.53 -7.3125 12.56 -7.3125 9.5 C-9.2925 9.5 -11.2725 9.5 -13.3125 9.5 Z " fill="#1669E4" transform="translate(34.3125,2.5)"/>
</svg>
